<svg width="22" height="21" viewBox="0 0 22 21" fill="none" xmlns="http://www.w3.org/2000/svg">
<g clip-path="url(#clip0_266_112)">
<path fill-rule="evenodd" clip-rule="evenodd" d="M21.4375 2.6377C20.6356 3.09269 19.0265 3.71277 18.0806 3.89163C18.0529 3.8985 18.0303 3.90735 18.0036 3.91423C17.1676 3.1261 16.0223 2.6377 14.7547 2.6377C12.1998 2.6377 10.1281 4.61785 10.1281 7.05987C10.1281 7.1886 10.1168 7.42543 10.1281 7.55123C6.68082 7.55123 4.05705 5.8256 2.17558 3.6204C1.97098 4.11175 1.88153 4.88809 1.88153 5.61726C1.88153 6.99403 3.00733 8.34623 4.76028 9.18448C4.43745 9.26407 4.08172 9.32108 3.7116 9.32108C3.11426 9.32108 2.48196 9.17072 1.90313 8.71475C1.90313 8.73145 1.90313 8.74718 1.90313 8.76486C1.90313 10.689 4.03957 11.9989 5.93954 12.3635C5.554 12.5807 4.77673 12.6023 4.39736 12.6023C4.13004 12.6023 3.18417 12.4854 2.93125 12.4402C3.45971 14.0174 5.36585 14.9038 7.18255 14.9353C5.76168 16.0005 4.77571 16.3956 1.86611 16.3956H0.875C2.71329 17.5218 5.05433 18.362 7.40051 18.362C15.0394 18.362 19.3813 12.7969 19.3813 7.55123C19.3813 7.46671 19.3792 7.28982 19.376 7.11195C19.376 7.09427 19.3813 7.07756 19.3813 7.05987C19.3813 7.03334 19.373 7.00778 19.373 6.98126C19.37 6.8476 19.3669 6.7228 19.3637 6.65794C20.1759 6.0978 20.8803 5.39909 21.4375 4.60311C20.692 4.91954 19.8922 5.13181 19.0522 5.22811C19.9097 4.73675 21.1281 3.56537 21.4375 2.6377Z" fill="white"/>
</g>
<defs>
<clipPath id="clip0_266_112">
<rect width="20.5625" height="20.5625" fill="white" transform="translate(0.875 0.21875)"/>
</clipPath>
</defs>
</svg>
