<svg width="21" height="21" viewBox="0 0 21 21" fill="none" xmlns="http://www.w3.org/2000/svg">
<g clip-path="url(#clip0_266_115)">
<path fill-rule="evenodd" clip-rule="evenodd" d="M3.53807 0.21875C2.20471 0.21875 1.12305 1.32317 1.12305 2.68684C1.12305 4.0505 2.20384 5.18048 3.53629 5.18048C4.86874 5.18048 5.95131 4.0505 5.95131 2.68684C5.95131 1.3241 4.87144 0.21875 3.53807 0.21875ZM15.3205 6.76137C13.2925 6.76137 12.1322 7.84598 11.5757 8.92458H11.5167V7.05161H7.52027V20.7812H11.6845V13.9849C11.6845 12.1941 11.8167 10.4635 13.9835 10.4635C16.1193 10.4635 16.1504 12.5054 16.1504 14.098V20.7812H20.3147V13.2401C20.3147 9.55005 19.539 6.76137 15.3205 6.76137ZM1.45504 7.05161V20.7812H5.62288V7.05161H1.45504Z" fill="white"/>
</g>
<defs>
<clipPath id="clip0_266_115">
<rect width="20.5625" height="20.5625" fill="white" transform="translate(0.4375 0.21875)"/>
</clipPath>
</defs>
</svg>
