<svg width="21" height="21" viewBox="0 0 21 21" fill="none" xmlns="http://www.w3.org/2000/svg">
<g clip-path="url(#clip0_266_109)">
<path fill-rule="evenodd" clip-rule="evenodd" d="M6.64824 0.82373C3.64303 0.82373 1.19141 3.27535 1.19141 6.28057V14.1665C1.19141 17.1716 3.64303 19.6233 6.64824 19.6233H14.5341C17.5394 19.6233 19.9909 17.1716 19.9909 14.1665V6.28057C19.9909 3.27535 17.5394 0.82373 14.5341 0.82373H6.64824ZM6.64835 2.26949H14.5342C16.757 2.26949 18.545 4.05455 18.545 6.28022V14.1661C18.545 16.3889 16.7599 18.1768 14.5342 18.1768H6.64835C4.42551 18.1768 2.63764 16.3917 2.63764 14.1661V6.28022C2.63764 4.05738 4.42268 2.26949 6.64835 2.26949ZM16.0141 3.71651C15.4153 3.71651 14.9295 4.20232 14.9295 4.8011C14.9295 5.39989 15.4153 5.8857 16.0141 5.8857C16.6128 5.8857 17.0986 5.39989 17.0986 4.8011C17.0986 4.20232 16.6128 3.71651 16.0141 3.71651ZM10.5908 5.16231C7.80308 5.16231 5.5294 7.436 5.5294 10.2237C5.5294 13.0115 7.80308 15.2851 10.5908 15.2851C13.3786 15.2851 15.6522 13.0115 15.6522 10.2237C15.6522 7.436 13.3786 5.16231 10.5908 5.16231ZM10.5911 6.60812C12.5965 6.60812 14.2064 8.21805 14.2064 10.2234C14.2064 12.2288 12.5965 13.8387 10.5911 13.8387C8.58573 13.8387 6.97579 12.2288 6.97579 10.2234C6.97579 8.21805 8.58573 6.60812 10.5911 6.60812Z" fill="white"/>
</g>
<defs>
<clipPath id="clip0_266_109">
<rect width="20.5625" height="20.5625" fill="white" transform="translate(0.3125 0.21875)"/>
</clipPath>
</defs>
</svg>
